<?xml version="1.0" encoding="utf-8"?>
<!-- Generator: Adobe Illustrator 27.5.0, SVG Export Plug-In . SVG Version: 6.00 Build 0)  -->
<svg version="1.1" id="Capa_1" xmlns="http://www.w3.org/2000/svg" xmlns:xlink="http://www.w3.org/1999/xlink" x="0px" y="0px"
	 viewBox="0 0 2122 2122" style="enable-background:new 0 0 2122 2122;" xml:space="preserve">
<g>
	<path style="fill:#45C1EF;" d="M1961.309,921.783c-45.458-270.659-210.46-518.448-462.97-650.483
		c-22.5-11.765-45.656-22.662-69.522-32.522c-6.589-2.722-13.202-5.355-19.83-7.917c-2.17-0.838-4.351-1.625-6.524-2.446
		c-4.469-1.688-8.936-3.376-13.422-4.991c-2.605-0.939-5.221-1.828-7.832-2.742c-4.079-1.429-8.159-2.858-12.25-4.227
		c-2.765-0.926-5.538-1.809-8.308-2.708c-3.962-1.285-7.926-2.563-11.898-3.793c-2.832-0.876-5.67-1.72-8.508-2.569
		c-3.94-1.177-7.884-2.342-11.833-3.466c-2.844-0.811-5.692-1.596-8.542-2.378c-3.975-1.091-7.955-2.159-11.939-3.195
		c-2.817-0.734-5.637-1.453-8.458-2.16c-4.059-1.014-8.121-1.998-12.187-2.957c-2.745-0.648-5.49-1.294-8.238-1.915
		c-4.21-0.953-8.426-1.865-12.643-2.758c-2.607-0.552-5.212-1.112-7.822-1.641c-4.465-0.908-8.935-1.762-13.408-2.601
		c-2.366-0.445-4.73-0.906-7.098-1.333c-4.951-0.89-9.906-1.718-14.864-2.529c-1.891-0.308-3.779-0.641-5.672-0.939
		c-6.157-0.967-12.319-1.864-18.485-2.707c-0.693-0.095-1.387-0.207-2.081-0.299c-14.16-1.904-28.34-3.484-42.531-4.74
		c-0.327-0.029-0.654-0.049-0.982-0.078c-6.623-0.578-13.249-1.09-19.876-1.528c-1.2-0.079-2.401-0.136-3.601-0.211
		c-5.774-0.36-11.548-0.682-17.323-0.935c-1.519-0.068-3.039-0.112-4.558-0.172c-5.476-0.216-10.952-0.395-16.426-0.514
		c-1.637-0.035-3.274-0.053-4.912-0.081c-5.386-0.09-10.771-0.143-16.152-0.14c-1.641,0-3.28,0.012-4.92,0.02
		c-5.426,0.03-10.85,0.104-16.27,0.227c-1.547,0.035-3.093,0.074-4.64,0.116c-5.582,0.154-11.161,0.358-16.735,0.611
		c-1.355,0.06-2.709,0.118-4.063,0.185c-5.885,0.292-11.764,0.64-17.637,1.041c-1.024,0.069-2.049,0.131-3.072,0.205
		c-6.425,0.458-12.843,0.981-19.253,1.569c-0.459,0.042-0.92,0.078-1.379,0.122c-27.503,2.56-54.861,6.283-81.978,11.205
		c-21.635,3.929-43.108,8.643-64.395,14.051c-0.216,0.055-0.43,0.111-0.645,0.166c-6.574,1.676-13.128,3.421-19.663,5.236
		c-0.382,0.107-0.762,0.214-1.143,0.321c-6.416,1.792-12.813,3.648-19.189,5.575c-0.397,0.118-0.793,0.238-1.19,0.358
		c-6.43,1.951-12.839,3.969-19.225,6.056c-0.282,0.092-0.564,0.183-0.846,0.274c-3.274,1.074-6.549,2.143-9.812,3.251
		c-3.332,1.133-6.652,2.301-9.971,3.472c-0.008,0.003-0.016,0.006-0.025,0.009c0.002,0,0.003-0.001,0.005-0.001
		c-45.593,16.068-89.963,35.604-132.614,58.557c-126.697,68.186-238.306,166.249-322.255,291.293
		c-44.355,66.07-79.589,138.133-104.974,213.529c-4.795,14.242-9.209,28.612-13.296,43.073
		c-20.051,70.943-31.558,144.303-33.882,217.978c-0.126,4-0.142,7.988-0.203,11.982c-0.001-0.024-0.002-0.048-0.002-0.072
		c-0.002,0.072,0.001,0.145,0,0.216c-0.105,6.84-0.115,13.671-0.033,20.491c0.002,0.198,0.004,0.397,0.007,0.597
		c0.087,6.768,0.263,13.525,0.532,20.27c0.01,0.267,0.022,0.535,0.033,0.802c0.272,6.669,0.63,13.326,1.077,19.97
		c0.024,0.361,0.05,0.722,0.075,1.085c0.45,6.546,0.979,13.08,1.596,19.601c0.044,0.473,0.093,0.945,0.139,1.418
		c0.618,6.41,1.309,12.804,2.086,19.185c0.073,0.6,0.152,1.198,0.227,1.797c0.776,6.251,1.618,12.49,2.545,18.712
		c0.111,0.749,0.233,1.493,0.346,2.24c0.922,6.072,1.902,12.13,2.966,18.173c0.161,0.919,0.337,1.835,0.502,2.755
		c1.055,5.868,2.157,11.726,3.344,17.565c0.225,1.113,0.471,2.22,0.701,3.331c1.172,5.643,2.38,11.276,3.673,16.891
		c0.304,1.325,0.635,2.643,0.946,3.967c1.272,5.398,2.571,10.791,3.953,16.162c0.4,1.555,0.832,3.101,1.24,4.653
		c1.354,5.132,2.723,10.26,4.175,15.366c0.52,1.829,1.082,3.647,1.614,5.474c1.408,4.82,2.82,9.639,4.316,14.434
		c0.672,2.157,1.394,4.299,2.084,6.45c1.43,4.458,2.851,8.917,4.355,13.35c0.873,2.572,1.806,5.125,2.704,7.689
		c1.401,4.004,2.781,8.015,4.244,11.998c1.208,3.294,2.492,6.562,3.74,9.841c1.233,3.237,2.43,6.487,3.703,9.708
		c2.57,6.508,5.217,12.987,7.945,19.435c0.014,0.033,0.028,0.065,0.042,0.098c2.673,6.313,5.421,12.596,8.244,18.848
		c0.034,0.076,0.069,0.152,0.103,0.228c2.806,6.211,5.685,12.391,8.635,18.539c0.054,0.113,0.11,0.225,0.163,0.338
		c2.932,6.103,5.934,12.174,9.007,18.212c0.085,0.168,0.171,0.334,0.256,0.501c3.05,5.985,6.166,11.939,9.351,17.859
		c0.114,0.212,0.23,0.423,0.345,0.636c3.163,5.867,6.389,11.701,9.681,17.503c0.152,0.267,0.306,0.534,0.459,0.802
		c3.264,5.736,6.589,11.441,9.978,17.111c0.197,0.329,0.398,0.659,0.596,0.988c3.358,5.602,6.774,11.171,10.252,16.704
		c0.244,0.389,0.492,0.774,0.736,1.163c3.449,5.469,6.953,10.908,10.517,16.308c0.29,0.439,0.583,0.874,0.874,1.312
		c3.532,5.335,7.117,10.636,10.759,15.901c0.35,0.505,0.706,1.008,1.057,1.514c3.606,5.19,7.26,10.347,10.97,15.469
		c0.405,0.558,0.815,1.111,1.221,1.667c3.676,5.049,7.397,10.068,11.173,15.047c0.472,0.624,0.952,1.241,1.427,1.864
		c3.733,4.899,7.509,9.766,11.337,14.594c0.541,0.682,1.091,1.358,1.634,2.04c3.787,4.75,7.613,9.469,11.49,14.149
		c0.614,0.741,1.237,1.474,1.853,2.214c3.835,4.599,7.705,9.173,11.626,13.702c0.689,0.796,1.388,1.584,2.079,2.377
		c3.873,4.448,7.78,8.869,11.735,13.247c0.776,0.858,1.564,1.708,2.343,2.565c3.903,4.288,7.835,8.553,11.814,12.775
		c0.861,0.913,1.735,1.815,2.599,2.725c3.929,4.135,7.883,8.246,11.883,12.314c0.952,0.967,1.917,1.922,2.872,2.886
		c3.948,3.98,7.919,7.939,11.933,11.852c1.044,1.017,2.102,2.019,3.151,3.031c3.961,3.826,7.943,7.632,11.968,11.392
		c1.138,1.062,2.29,2.108,3.432,3.165c3.971,3.675,7.959,7.33,11.99,10.938c1.237,1.107,2.49,2.195,3.733,3.296
		c3.971,3.518,7.956,7.021,11.984,10.476c1.341,1.15,2.699,2.28,4.047,3.423c3.967,3.365,7.947,6.718,11.967,10.02
		c1.44,1.183,2.898,2.344,4.344,3.518c3.961,3.216,7.932,6.421,11.941,9.576c1.549,1.218,3.117,2.412,4.673,3.621
		c3.947,3.066,7.9,6.122,11.893,9.126c1.651,1.243,3.323,2.459,4.982,3.692c3.933,2.922,7.872,5.836,11.848,8.697
		c1.761,1.267,3.542,2.504,5.311,3.76c3.907,2.773,7.819,5.54,11.766,8.255c1.88,1.294,3.781,2.552,5.669,3.831
		c3.878,2.627,7.758,5.251,11.671,7.82c1.979,1.298,3.979,2.562,5.966,3.845c3.861,2.494,7.722,4.987,11.616,7.423
		c2.082,1.304,4.186,2.568,6.277,3.855c3.834,2.357,7.666,4.716,11.529,7.02c2.199,1.309,4.419,2.578,6.628,3.87
		c3.793,2.218,7.583,4.442,11.404,6.606c2.307,1.306,4.637,2.569,6.955,3.857c3.759,2.088,7.515,4.183,11.301,6.218
		c2.415,1.299,4.852,2.55,7.278,3.826c3.719,1.957,7.433,3.925,11.175,5.831c2.53,1.287,5.082,2.525,7.622,3.79
		c3.675,1.828,7.344,3.67,11.041,5.448c2.63,1.266,5.281,2.48,7.922,3.718c3.64,1.709,7.273,3.433,10.933,5.093
		c2.731,1.237,5.483,2.421,8.225,3.632c3.6,1.589,7.192,3.197,10.81,4.739c2.835,1.207,5.69,2.357,8.536,3.535
		c3.556,1.472,7.103,2.965,10.676,4.391c2.938,1.172,5.896,2.283,8.844,3.423c3.509,1.357,7.01,2.738,10.535,4.05
		c0.112,0.04,0.223,0.087,0.336,0.129c2.925,1.088,5.872,2.108,8.808,3.165c3.462,1.245,6.916,2.516,10.392,3.718
		c3.138,1.083,6.297,2.101,9.445,3.149c3.413,1.137,6.818,2.3,10.242,3.394c3.225,1.029,6.471,1.989,9.707,2.978
		c3.375,1.033,6.74,2.096,10.126,3.088c3.311,0.969,6.64,1.865,9.962,2.793c3.333,0.933,6.657,1.897,10,2.787
		c0.258,0.068,0.516,0.142,0.775,0.211c3.161,0.84,6.342,1.599,9.513,2.402c3.264,0.827,6.52,1.688,9.793,2.474
		c3.54,0.85,7.098,1.62,10.649,2.423c3.184,0.721,6.36,1.48,9.553,2.163c3.673,0.785,7.363,1.487,11.046,2.223
		c3.087,0.615,6.166,1.273,9.26,1.854c3.854,0.722,7.723,1.358,11.587,2.026c2.94,0.507,5.872,1.059,8.817,1.535
		c4.083,0.659,8.181,1.225,12.274,1.821c2.743,0.399,5.478,0.846,8.224,1.215c4.56,0.616,9.132,1.134,13.703,1.67
		c2.292,0.267,4.577,0.585,6.872,0.834c6.871,0.744,13.754,1.4,20.648,1.964c370.163,30.24,751.793-155.12,913.453-497.825
		C1969.993,1282.714,1990.812,1097.445,1961.309,921.783z"/>
	<path style="fill:#00A2E4;" d="M1961.309,921.783c-45.458-270.659-210.46-518.448-462.97-650.483
		c-22.5-11.765-45.656-22.662-69.522-32.522c-6.589-2.722-13.202-5.355-19.83-7.917c-2.17-0.838-4.351-1.625-6.524-2.446
		c-4.469-1.688-8.936-3.376-13.422-4.991c-2.605-0.939-5.221-1.828-7.832-2.742c-4.079-1.429-8.159-2.858-12.25-4.227
		c-2.765-0.926-5.538-1.809-8.308-2.708c-3.962-1.285-7.926-2.563-11.898-3.793c-2.832-0.876-5.67-1.72-8.508-2.569
		c-3.94-1.177-7.884-2.342-11.833-3.466c-2.844-0.811-5.692-1.596-8.542-2.378c-3.975-1.091-7.955-2.159-11.939-3.195
		c-2.817-0.734-5.637-1.453-8.458-2.16c-4.059-1.014-8.121-1.998-12.187-2.957c-2.745-0.648-5.49-1.294-8.238-1.915
		c-4.21-0.953-8.426-1.865-12.643-2.758c-2.607-0.552-5.212-1.112-7.822-1.641c-4.465-0.908-8.935-1.762-13.408-2.601
		c-2.366-0.445-4.73-0.906-7.098-1.333c-4.951-0.89-9.906-1.718-14.864-2.529c-1.891-0.308-3.779-0.641-5.672-0.939
		c-6.157-0.967-12.319-1.864-18.485-2.707c-0.693-0.095-1.387-0.207-2.081-0.299c-14.16-1.904-28.34-3.484-42.531-4.74
		c-0.327-0.029-0.654-0.049-0.982-0.078c-6.623-0.578-13.249-1.09-19.876-1.528c-1.2-0.079-2.401-0.136-3.601-0.211
		c-5.774-0.36-11.548-0.682-17.323-0.935c-1.519-0.068-3.039-0.112-4.558-0.172c-5.476-0.216-10.952-0.395-16.426-0.514
		c-1.637-0.035-3.274-0.053-4.912-0.081c-5.386-0.09-10.771-0.143-16.152-0.14c-1.641,0-3.28,0.012-4.92,0.02
		c-5.426,0.03-10.85,0.104-16.27,0.227c-1.547,0.035-3.093,0.074-4.64,0.116c-5.582,0.154-11.161,0.358-16.735,0.611
		c-1.355,0.06-2.709,0.118-4.063,0.185c-5.885,0.292-11.764,0.64-17.637,1.041c-1.024,0.069-2.049,0.131-3.072,0.205
		c-6.425,0.458-12.843,0.981-19.253,1.569c-0.459,0.042-0.92,0.078-1.379,0.122c-27.504,2.563-54.855,6.336-81.973,11.263
		c-21.631,3.929-43.115,8.585-64.4,13.993c-0.216,0.055-0.43,0.111-0.645,0.166c-6.574,1.676-13.128,3.421-19.663,5.236
		c-0.382,0.107-0.762,0.214-1.143,0.321c-6.416,1.792-12.813,3.648-19.189,5.575c-0.397,0.118-0.793,0.238-1.19,0.358
		c-6.43,1.951-12.839,3.969-19.225,6.056c-0.282,0.092-0.564,0.183-0.846,0.274c-3.297,1.081-6.57,2.234-9.857,3.351
		c-3.309,1.125-6.63,2.211-9.926,3.373c-0.008,0.003-0.016,0.006-0.025,0.009c0.002,0,0.003-0.001,0.005-0.001
		c3.253-1.051,6.529-2.032,9.794-3.046c44.584-13.841,90.239-24.27,136.513-31.174c158.922-23.709,325.057-5.908,479.569,57.927
		c34.261,14.155,67.064,30.441,98.373,48.605c243.094,141.028,395.036,396.555,421.981,668.262
		c14.963,150.88-8.598,306.742-76.527,450.747c-155.559,329.77-522.786,508.137-878.979,479.035
		c-33.918-2.771-67.565-7.881-100.78-15.084c-30.873-6.696-61.368-15.212-91.334-25.464
		c-332.12-113.623-599.667-437.621-605.837-793.47c-1.752,112.231,21.744,221.814,64.833,323.623
		c0.014,0.033,0.028,0.065,0.042,0.098c2.673,6.313,5.421,12.596,8.244,18.848c0.034,0.076,0.069,0.152,0.103,0.228
		c2.806,6.211,5.685,12.391,8.635,18.539c0.054,0.113,0.11,0.225,0.163,0.338c2.932,6.103,5.934,12.174,9.007,18.212
		c0.085,0.168,0.171,0.334,0.256,0.501c3.05,5.985,6.166,11.939,9.351,17.859c0.114,0.212,0.23,0.423,0.345,0.636
		c3.163,5.867,6.389,11.701,9.681,17.503c0.152,0.267,0.306,0.534,0.459,0.802c3.264,5.736,6.589,11.441,9.978,17.111
		c0.197,0.329,0.398,0.659,0.596,0.988c3.358,5.602,6.774,11.171,10.252,16.704c0.244,0.389,0.492,0.774,0.736,1.163
		c3.449,5.469,6.953,10.908,10.517,16.308c0.29,0.439,0.583,0.874,0.874,1.312c3.532,5.335,7.117,10.636,10.759,15.901
		c0.35,0.505,0.706,1.008,1.057,1.514c3.606,5.19,7.26,10.347,10.97,15.469c0.405,0.558,0.815,1.111,1.221,1.667
		c3.676,5.049,7.397,10.068,11.173,15.047c0.472,0.624,0.952,1.241,1.427,1.864c3.733,4.899,7.509,9.766,11.337,14.594
		c0.541,0.682,1.091,1.358,1.634,2.04c3.787,4.75,7.613,9.469,11.49,14.149c0.614,0.741,1.237,1.474,1.853,2.214
		c3.835,4.599,7.705,9.173,11.626,13.702c0.689,0.796,1.388,1.584,2.079,2.377c3.873,4.448,7.78,8.869,11.735,13.247
		c0.776,0.858,1.564,1.708,2.343,2.565c3.903,4.288,7.835,8.553,11.814,12.775c0.861,0.913,1.735,1.815,2.599,2.725
		c3.929,4.135,7.883,8.246,11.883,12.314c0.952,0.967,1.917,1.922,2.872,2.886c3.948,3.98,7.919,7.939,11.933,11.852
		c1.044,1.017,2.102,2.019,3.151,3.031c3.961,3.826,7.943,7.632,11.968,11.392c1.138,1.062,2.29,2.108,3.432,3.165
		c3.971,3.675,7.959,7.33,11.99,10.938c1.237,1.107,2.49,2.195,3.733,3.296c3.971,3.518,7.956,7.021,11.984,10.476
		c1.341,1.15,2.699,2.28,4.047,3.423c3.967,3.365,7.947,6.718,11.967,10.02c1.44,1.183,2.898,2.344,4.344,3.518
		c3.961,3.216,7.932,6.421,11.941,9.576c1.549,1.218,3.117,2.412,4.673,3.621c3.947,3.066,7.9,6.122,11.893,9.126
		c1.651,1.243,3.323,2.459,4.982,3.692c3.933,2.922,7.872,5.836,11.848,8.697c1.761,1.267,3.542,2.504,5.311,3.76
		c3.907,2.773,7.819,5.54,11.766,8.255c1.88,1.294,3.781,2.552,5.669,3.831c3.878,2.627,7.758,5.251,11.671,7.82
		c1.979,1.298,3.979,2.562,5.966,3.845c3.861,2.494,7.722,4.987,11.616,7.423c2.082,1.304,4.186,2.568,6.277,3.855
		c3.834,2.357,7.666,4.716,11.529,7.02c2.199,1.309,4.419,2.578,6.628,3.87c3.793,2.218,7.583,4.442,11.404,6.606
		c2.307,1.306,4.637,2.569,6.955,3.857c3.759,2.088,7.515,4.183,11.301,6.218c2.415,1.299,4.852,2.55,7.278,3.826
		c3.719,1.957,7.433,3.925,11.175,5.831c2.53,1.287,5.082,2.525,7.622,3.79c3.675,1.828,7.344,3.67,11.041,5.448
		c2.63,1.266,5.281,2.48,7.922,3.718c3.64,1.709,7.273,3.433,10.933,5.093c2.731,1.237,5.483,2.421,8.225,3.632
		c3.6,1.589,7.192,3.197,10.81,4.739c2.835,1.207,5.69,2.357,8.536,3.535c3.556,1.472,7.103,2.965,10.676,4.391
		c2.938,1.172,5.896,2.283,8.844,3.423c3.509,1.357,7.01,2.738,10.535,4.05c0.112,0.04,0.223,0.087,0.336,0.129
		c2.925,1.088,5.872,2.108,8.808,3.165c3.462,1.245,6.916,2.516,10.392,3.718c3.138,1.083,6.297,2.101,9.445,3.149
		c3.413,1.137,6.818,2.3,10.242,3.394c3.225,1.029,6.471,1.989,9.707,2.978c3.375,1.033,6.74,2.096,10.126,3.088
		c3.311,0.969,6.64,1.865,9.962,2.793c3.333,0.933,6.657,1.897,10,2.787c0.258,0.068,0.516,0.142,0.775,0.211
		c3.161,0.84,6.342,1.599,9.513,2.402c3.264,0.827,6.52,1.688,9.793,2.474c3.54,0.85,7.098,1.62,10.649,2.423
		c3.184,0.721,6.36,1.48,9.553,2.163c3.673,0.785,7.363,1.487,11.046,2.223c3.087,0.615,6.166,1.273,9.26,1.854
		c3.854,0.722,7.723,1.358,11.587,2.026c2.94,0.507,5.872,1.059,8.817,1.535c4.083,0.659,8.181,1.225,12.274,1.821
		c2.743,0.399,5.478,0.846,8.224,1.215c4.56,0.616,9.132,1.134,13.703,1.67c2.292,0.267,4.577,0.585,6.872,0.834
		c6.871,0.744,13.754,1.4,20.648,1.964c370.163,30.24,751.793-155.12,913.453-497.825
		C1969.993,1282.714,1990.812,1097.445,1961.309,921.783z"/>
	<g>
		<path style="fill:#00B7EC;" d="M1900.8,962.751c-26.944-271.707-178.887-527.234-421.981-668.262
			c-31.31-18.164-64.113-34.45-98.373-48.605c-154.511-63.836-320.647-81.636-479.569-57.927
			c-46.274,6.904-91.929,17.332-136.513,31.174c-3.265,1.015-6.541,1.996-9.794,3.046c-45.593,16.068-89.963,35.604-132.614,58.557
			c-126.697,68.186-238.306,166.249-322.255,291.293c-44.355,66.07-79.589,138.133-104.974,213.529
			c-4.795,14.242-9.209,28.612-13.296,43.073c-20.051,70.943-31.558,144.303-33.882,217.978c-0.126,4-0.142,7.988-0.203,11.982
			c6.205,355.82,273.737,679.781,605.834,793.398c29.966,10.252,60.461,18.767,91.334,25.464
			c33.216,7.203,66.862,12.312,100.78,15.084c356.193,29.101,723.419-149.265,878.979-479.035
			C1892.202,1269.493,1915.762,1113.631,1900.8,962.751z M896.937,1690.593c-26.904-2.198-53.606-6.149-79.991-11.672
			c-61.574-12.892-121.396-34.496-177.838-63.404c-227.899-116.721-400.716-352.046-412.022-609.345
			c-0.669-15.224-0.824-30.518-0.34-45.876c2.26-71.696,15.244-143.037,38.136-211.029c20.521-60.946,49.005-119.204,84.86-172.613
			c76.204-113.506,180.61-199.488,298.814-254.674c27.407-12.796,55.554-23.934,84.268-33.374
			c78.894-25.934,162.031-39.071,245.716-38.485c95.81,0.669,192.324,19.28,283.962,57.14
			c60.578,25.027,115.763,57.943,165.061,97.027c13.368,10.597,26.32,21.629,38.806,33.107
			c15.779,14.508,30.818,29.71,45.146,45.504c192.275,211.922,251.952,533.678,123.841,805.261
			c-50.558,107.179-127.744,195.302-220.697,261.678C1267.343,1655.033,1080.404,1705.582,896.937,1690.593z"/>
	</g>
	<path style="fill:#60C6F1;" d="M1472.09,895.326c-3.1-36.302-9.583-72.202-19.286-107.169
		c-15.064-54.285-37.856-106.303-67.693-154.052c-59.334-94.954-146.479-173.012-256.02-218.266
		c-28.102-11.611-56.79-20.905-85.801-27.953c-55.341-13.447-111.854-18.678-167.727-16.171
		c-59.752,2.68-118.761,14.228-174.809,34.154C586.792,446.385,485.087,521.461,414.382,626.78
		c-28.076,41.82-50.378,87.438-66.448,135.159C330.01,815.178,319.84,871.04,318.072,927.18
		c-2.077,65.879,9.689,130.41,32.391,191.036c29.528,78.856,77.597,151.084,137.988,211.026
		c95.574,94.862,221.952,158.958,354.395,169.778c27.091,2.214,54.277,2.579,81.336,1.2
		c155.643-7.93,307.005-74.317,410.992-188.355c34.29-37.605,63.431-80.386,85.873-127.961
		C1464.542,1091.696,1480.357,992.1,1472.09,895.326z"/>
	<path style="fill:#7CCEF3;" d="M884.028,506.685c-3.826-2.159-7.712-4.24-11.664-6.231c-6.287-3.169-12.721-6.141-19.323-8.867
		c-17.26-7.131-34.944-12.568-52.825-16.426c-39.977-8.622-80.938-9.164-120.444-2.254c-15.814,2.766-31.404,6.677-46.589,11.802
		c-46.799,15.799-89.81,42.68-124.483,79.468c-11.025,11.698-21.249,24.347-30.43,38.022c-5.594,8.331-10.744,16.951-15.449,25.807
		c-7.682,14.458-14.169,29.548-19.394,45.066c-9.401,27.917-14.73,57.209-15.66,86.648c-1.551,49.226,11.606,97.024,35.153,139.491
		c48.483,87.444,141.03,152.276,240.026,160.362c122.862,10.04,249.531-51.487,303.188-165.235
		C1072.252,754.174,1016.56,581.465,884.028,506.685z"/>
	<g>
		<path style="fill:#1CAC79;" d="M1031.03,261.086c-6.652,1.887-12.75,6.335-19.66,6.141c-7.962-0.225-14.236-6.436-20.842-10.889
			c-3.773-2.543-7.803-4.546-11.987-6.216c-11.668-4.659-24.58-6.667-36.798-10.092c-16.6-4.655-34.038-13.984-39.017-30.488
			c-2.093-6.94-1.702-14.297-1.848-21.584c-0.029-1.503-0.1-3-0.204-4.491c-0.001-0.018-0.003-0.039-0.005-0.058
			c-21.635,3.929-43.108,8.643-64.395,14.051c-0.216,0.055-0.43,0.111-0.645,0.166c-6.574,1.676-13.128,3.421-19.663,5.236
			c-0.382,0.107-0.762,0.214-1.143,0.321c-6.416,1.792-12.813,3.648-19.189,5.575c-0.397,0.118-0.793,0.238-1.19,0.358
			c-6.43,1.951-12.839,3.969-19.225,6.056c-0.282,0.092-0.564,0.183-0.846,0.274c-3.274,1.074-6.549,2.143-9.812,3.251
			c-0.015,0.033-0.029,0.066-0.045,0.099c-0.052,0.11-0.099,0.222-0.152,0.334c-11.379,23.937-36.138,44.039-31.54,69.476
			c0.05,0.28,0.08,0.555,0.138,0.835c4.205,20.484,26.955,32.171,47.843,33.2c20.888,1.029,41.375-5.494,62.22-7.187
			c5.598-0.456,11.499-0.503,16.496,2.066c9.089,4.67,12.065,16.051,13.519,26.165c1.335,9.29,2.148,18.65,2.523,28.03
			c1.017,25.355-1.424,50.851-7.358,75.525c-4.378,18.198-9.151,40.864,4.159,53.214c0.518,0.481,1.009,0.977,1.583,1.426
			c3.055,2.386,6.463,3.861,10.081,4.805c14.516,3.789,32.566-1.316,46.2,6.157c4.812,2.639,8.86,6.768,14.115,8.355
			c16.617,5.014,28.342-17.707,26.495-34.965c-1.85-17.259-9.318-35.803-0.994-51.033c8.78-16.062,29.914-19.157,46.513-26.87
			c10.437-4.849,19.367-11.941,26.933-20.442c13.548-15.223,22.669-35.022,27.84-54.965c4.19-16.166,6.207-33.806-0.271-49.198
			C1064.38,268.331,1047.095,256.528,1031.03,261.086z"/>
		<path style="fill:#1CAC79;" d="M964.868,1304.689c-21.836-14.776-51.808,0.517-77.566-5.115
			c-41.115-8.988-56.55-66.119-97.263-76.768c-27.758-7.26-59.645,9.786-84.837-3.948c-10.329-5.63-17.961-15.874-29.07-19.744
			c-32.269-11.239-56.247,36.196-90.131,40.592c-4.361-23.931-8.725-47.863-13.086-71.795
			c-20.703,12.441-37.665,31.029-48.158,52.785c-5.037-15.25-10.074-30.498-15.108-45.747c-6.745,16.285-32.737,0.815-35.061-16.657
			c-2.323-17.47,2.731-38.428-10.181-50.427c-15.242-14.161-39.572-2.014-56.331,10.311c-11.066-32.983-22.131-65.966-33.193-98.951
			c-2.587-7.705-5.196-15.527-5.633-23.646c-1.11-20.594,11.629-39.069,23.793-55.723c15.715-21.513,36.798-45.499,63.22-42.083
			c2.257,0.292,4.471,0.799,6.655,1.439c16.446,4.82,31.122,17.954,48.158,16.16c25.189-2.65,34.714-33.616,39.54-58.48
			c4.826-24.862,18.458-55.527,43.702-53.498c24.66,1.982,39.615,36.003,64.205,33.3c25.348-2.783,28.556-38.257,24.099-63.365
			c-4.456-25.107-3.078-60.186,21.984-64.887c20.224-3.795,35.624,17.695,43.1,36.864c7.476,19.172,15.825,42.095,35.751,47.227
			c34.633-11.953,45.681-58.92,31.769-92.813c-13.912-33.896-44.664-57.411-74.081-79.254c-14.346-10.652-30.72-21.868-48.43-19.469
			c-12.193,1.65-24.065,9.733-35.876,6.288c-7.714-2.251-13.41-9.048-21.045-11.554c-16.053-5.274-31.156,9.907-40.182,24.194
			c-14.863,23.536-26.24,49.271-33.638,76.104c-39.124,2.604-82.421-16.189-96.058-52.95c-1.803-4.862-2.793-9.94-3.098-15.074
			c-1.72-28.891,18.861-59.563,45.88-63.83c4.477-0.707,9.128-0.695,13.884,0.176c7.826,1.433,15.519,4.881,23.411,3.875
			c9.678-1.234,17.16-8.786,23.83-15.904c21.12-22.537,42.239-45.077,63.358-67.616c9.601-10.245,19.202-20.491,28.803-30.737
			c8.46,3.605,14.422,10.631,17.786,18.935c6.896,17.019,2.821,39.436-13.432,48.978c0.095,27.613,35.592,43.557,61.85,35.018
			c24.92-8.104,65.136-44.439,70.63-71.387c0.796-3.901,1.236-7.314,1.396-10.355c1.675-31.925-29.816-19.559-54.85-30.125
			c-16.12-6.803-30.857-21.206-44.611-39.166c-18.924-24.709-35.982-56.142-52.198-83.889c-9.07-15.52-17.879-29.885-26.601-41.246
			c-126.697,68.186-238.306,166.249-322.255,291.293c-44.355,66.07-79.589,138.133-104.974,213.529
			c-4.795,14.242-9.209,28.612-13.296,43.073c10.037,25.721,2.354,57.29,3.442,86.075c1.301,34.447,17.126,67.925,42.215,91.468
			c6.059,5.686,12.64,10.808,19.708,15.206c6.491-21.342,12.979-42.685,19.467-64.03c25.24,36.91,28.194,85.236,51.562,123.354
			c8.838,14.418,20.062,26.59,32.64,37.514c41.316,35.883,97.423,58.115,133.101,100.688c16.77,20.007,28.804,46.826,21.929,72.011
			c-3.485,12.776-11.476,23.833-16.294,36.167c-0.277,0.711-0.494,1.441-0.748,2.159c-9.496,26.85-2.667,58.869,17.198,79.329
			c18.313,18.859,46.074,28.203,59.856,50.591c10.479,17.022,10.704,38.199,16.074,57.455c10.216,36.63,38.949,66.049,57.53,98.901
			c7.947,14.052,14.049,28.729,16.03,44.873c2.584,21.068-2.297,42.306-2.358,63.532c-0.06,21.224,6.37,44.736,24.594,55.62
			c12.175,7.274,27.35,7.528,40.202,13.528c22.061,10.297,31.836,33.862,35.604,58.916c1.522,10.125,2.091,20.487,2.049,30.326
			c-0.025,5.833-0.073,11.807-0.027,17.815c2.925,1.088,5.872,2.108,8.808,3.165c3.462,1.245,6.916,2.516,10.392,3.718
			c3.138,1.083,6.297,2.101,9.445,3.149c3.413,1.137,6.818,2.3,10.242,3.394c3.225,1.029,6.471,1.989,9.707,2.978
			c3.375,1.033,6.74,2.096,10.126,3.088c3.311,0.969,6.64,1.865,9.962,2.793c3.333,0.933,6.657,1.897,10,2.787
			c0.258,0.068,0.516,0.142,0.775,0.211c6.541-16.083,10.597-32.533,9.855-47.959c-0.637-13.237-4.789-25.722-13.996-36.551
			c-8.112-9.54-19.417-16.331-25.943-27.021c-8.643-14.163-7.161-32.041-5.396-48.542c3.071-28.654,7.504-59.484,17.767-86.415
			c9.479-24.874,23.929-46.422,46.924-59.825c20.455-11.924,46.586-16.449,60.599-35.532c17.318-23.579,6.89-53.293-0.288-83.344
			c-3.972-16.631-6.952-33.366-3.674-49.22c5.708-27.607,29.211-47.319,45.274-70.488
			C981.846,1357.347,988.215,1320.489,964.868,1304.689z"/>
		<path style="fill:#1CAC79;" d="M1498.34,271.3c-7.155,7.612-13.744,15.383-19.521,23.189c-26.62,35.969-36.058,72.65-4.529,97.585
			c17.681,13.982,44.08,16.493,57.125,34.873c13.071,18.421,3.318,48.317-18.103,55.484c-0.593,0.198-1.199,0.306-1.799,0.466
			c-21.042,5.628-45.423-11.932-46.05-33.885c-0.109-3.817,0.366-7.721,0.904-11.618c1.215-8.816,2.757-17.588-1.377-25.171
			c-6.859-12.577-22.654-12.382-37.428-7.936c-5.197,1.563-10.268,3.641-14.778,5.89c-28.379,14.146-57.66,29.223-77.074,54.296
			c-19.412,25.07-25.862,63.159-6.184,88.021c20.096,25.385,64.442,25.327,84.47-0.113c-9.901,17.053-19.591,39.465-7.479,55.024
			c7.514,9.652,20.628,12.383,31.884,17.172c11.253,4.791,22.692,15.464,19.573,27.292c-2.997,11.378-18.094,15.369-29.226,11.548
			c-11.129-3.818-19.576-12.747-28.879-19.949c-4.59-3.555-9.557-6.681-14.759-9.365c-19.182-9.893-41.733-13.354-61.981-6.399
			c-25.738,8.843-45.02,36.798-39.462,63.437c5.557,26.642,39.372,44.614,62.772,30.717c-12.583,23.614-18.366,50.802-16.482,77.494
			c19.291-5.757,39.237-11.577,59.229-9.239c19.996,2.338,40.217,15.03,44.904,34.607c4.066-13.148,10.47-25.544,18.712-36.564
			c7.168-9.583,15.719-18.13,25.389-25.183c-3.156,22.134,19.707,41.58,42.066,41.586c22.359,0.003,42.398-14.172,57.35-30.798
			c-0.658,34.428,42.164,61.258,72.855,45.65c2.231,9.06,4.459,18.12,6.687,27.18c-20.079,15.071-48.314,2.451-70.352-9.58
			c-22.039-12.031-52.117-22.281-69.798-4.454c-17.599,17.745-7.323,47.485,3.904,69.815c-15.817-4.861-32.311-7.134-48.815-7.047
			c-46.372,0.243-92.825,19.286-124.587,53.243c-26.327,28.148-51.053,69.144-89.429,65.575
			c-14.247-1.327-27.093-9.141-41.124-11.947c-43.21-8.638-84.47,44.779-65.197,84.403c32.572,66.963,154.644,32.107,192.264,96.371
			c18.389,31.411,6.326,70.913-3.528,105.951c-2.073,7.369-3.924,15.1-5.316,22.943c-5.228,29.447-3.894,60.465,17.376,79.797
			c15.822,14.38,39.459,18.501,53.712,34.437c26.038,29.11,5.835,74.462,7.427,113.484c0.141,3.453,0.492,6.866,0.969,10.253
			c3.904,27.73,18.186,53.4,28.742,79.652c11.846,29.46,18.62,64.807,1.601,91.614c14.863,7.159,31.596-5.21,42.225-17.828
			c45.259-53.721,64.942-128.295,120.111-171.777c44.248-34.876,108.76-47.603,135.657-97.108
			c31.83-58.576-7.268-137.953,26.749-195.287c13.097-22.073,35.283-37.225,50.559-57.85c15.276-20.623,21.588-52.903,2.462-70.018
			c-14.14-12.652-35.344-11.334-54.23-13.167c-18.882-1.832-41.132-12.155-41.511-31.125c-0.754-37.899,78.358-35.139,76.817-73.014
			c-0.321-7.919-4.708-15.016-8.961-21.701c-12.265-19.284-24.53-38.566-36.795-57.848c31.842,3.269,61.651,22.452,77.82,50.08
			c4.115,7.034,8.19,15.262,15.97,17.692c6.681,2.084,13.788-0.93,20.073-4.011c9.789-4.799,19.399-9.957,28.852-15.39
			c21.14-12.149,41.38-25.852,60.509-40.968C1915.851,651.124,1750.849,403.335,1498.34,271.3z"/>
	</g>
	<path style="fill:#07A66F;" d="M774.401,1907.009c-3.476-1.202-6.93-2.473-10.392-3.718
		C767.472,1904.536,770.925,1905.807,774.401,1907.009z"/>
	<path style="fill:#07A66F;" d="M184.872,914.704c1.301,34.447,17.126,67.925,42.215,91.468c-0.669-15.224-0.824-30.518-0.34-45.876
		c2.26-71.696,15.244-143.037,38.136-211.029c20.521-60.946,49.005-119.204,84.86-172.613
		c76.204-113.506,180.61-199.488,298.814-254.674c-9.07-15.52-17.879-29.885-26.601-41.246
		c-126.697,68.186-238.306,166.249-322.255,291.293c-44.355,66.07-79.589,138.133-104.974,213.529
		c-4.795,14.242-9.209,28.612-13.296,43.073C191.467,854.35,183.784,885.919,184.872,914.704z"/>
	<path style="fill:#07A66F;" d="M813.922,1919.618c-3.386-0.991-6.752-2.055-10.126-3.088
		C807.17,1917.563,810.536,1918.627,813.922,1919.618z"/>
	<path style="fill:#07A66F;" d="M794.089,1913.552c-3.425-1.094-6.829-2.257-10.242-3.394
		C787.26,1911.293,790.664,1912.458,794.089,1913.552z"/>
	<path style="fill:#07A66F;" d="M804.574,1813.878c-8.643-14.163-7.161-32.041-5.396-48.542
		c3.071-28.654,7.504-59.484,17.767-86.415c-61.574-12.892-121.396-34.496-177.838-63.404c7.947,14.052,14.049,28.729,16.03,44.873
		c2.584,21.068-2.297,42.306-2.358,63.532c-0.06,21.224,6.37,44.736,24.594,55.62c12.175,7.274,27.35,7.528,40.202,13.528
		c22.061,10.297,31.836,33.862,35.604,58.916c29.966,10.252,60.461,18.767,91.334,25.464c-0.637-13.237-4.789-25.722-13.996-36.551
		C822.405,1831.359,811.1,1824.568,804.574,1813.878z"/>
	<path style="fill:#07A66F;" d="M833.884,1925.198c-3.343-0.89-6.667-1.855-10-2.787
		C827.217,1923.343,830.541,1924.308,833.884,1925.198z"/>
	<path style="fill:#009663;" d="M844.514,1877.45c-30.873-6.696-61.368-15.212-91.334-25.464
		c1.522,10.125,2.091,20.487,2.049,30.326c-0.025,5.833-0.073,11.807-0.027,17.815c2.925,1.088,5.872,2.108,8.808,3.165
		c3.462,1.245,6.916,2.516,10.392,3.718c3.138,1.083,6.297,2.101,9.445,3.149c3.413,1.137,6.818,2.3,10.242,3.394
		c3.225,1.029,6.471,1.989,9.707,2.978c3.375,1.033,6.74,2.096,10.126,3.088c3.311,0.969,6.64,1.865,9.962,2.793
		c3.333,0.933,6.657,1.897,10,2.787c0.258,0.068,0.516,0.142,0.775,0.211C841.199,1909.326,845.256,1892.876,844.514,1877.45z"/>
	<path style="fill:#44B388;" d="M920.507,1451.001c5.708-27.607,29.211-47.319,45.274-70.488
		c16.065-23.166,22.434-60.024-0.914-75.823c-21.836-14.776-51.808,0.517-77.566-5.115c-41.115-8.988-56.55-66.119-97.263-76.768
		c-27.758-7.26-59.645,9.786-84.837-3.948c-10.329-5.63-17.961-15.874-29.07-19.744c-32.269-11.239-56.247,36.196-90.131,40.592
		c-4.361-23.931-8.725-47.863-13.086-71.795c-20.703,12.441-37.665,31.029-48.158,52.785c-5.037-15.25-10.074-30.498-15.108-45.747
		c-6.745,16.285-32.737,0.815-35.061-16.657c-2.323-17.47,2.731-38.428-10.181-50.427c-15.242-14.161-39.572-2.014-56.331,10.311
		c-11.066-32.983-22.131-65.966-33.193-98.951c-2.587-7.705-5.196-15.527-5.633-23.646c-1.11-20.594,11.629-39.069,23.793-55.723
		c15.715-21.513,36.798-45.499,63.22-42.083c2.257,0.292,4.471,0.799,6.655,1.439c-23.547-42.468-36.704-90.266-35.153-139.491
		c0.93-29.44,6.26-58.732,15.66-86.648c5.226-15.518,11.713-30.608,19.394-45.066c-1.72-28.891,18.861-59.563,45.88-63.83
		c34.674-36.788,77.684-63.669,124.483-79.468c9.601-10.245,19.202-20.491,28.803-30.737c8.46,3.605,14.422,10.631,17.786,18.935
		c39.506-6.91,80.468-6.368,120.444,2.254c1.675-31.925-29.816-19.559-54.85-30.125c-16.12-6.803-30.857-21.206-44.611-39.166
		C586.792,446.385,485.087,521.461,414.382,626.78c-28.076,41.82-50.378,87.438-66.448,135.159
		C330.01,815.178,319.84,871.04,318.072,927.18c-2.077,65.879,9.689,130.41,32.391,191.036
		c41.316,35.883,97.423,58.115,133.101,100.688c16.77,20.007,28.804,46.826,21.929,72.011
		c-3.485,12.776-11.476,23.833-16.294,36.167c-0.277,0.711-0.494,1.441-0.748,2.159c95.574,94.862,221.952,158.958,354.395,169.778
		c27.091,2.214,54.277,2.579,81.336,1.2C920.209,1483.589,917.229,1466.855,920.507,1451.001z"/>
	<path style="fill:#5BBBA0;" d="M511.076,915.372c25.189-2.65,34.714-33.616,39.54-58.48c4.826-24.862,18.458-55.527,43.702-53.498
		c24.66,1.982,39.615,36.003,64.205,33.3c25.348-2.783,28.556-38.257,24.099-63.365c-4.456-25.107-3.078-60.186,21.984-64.887
		c20.224-3.795,35.624,17.695,43.1,36.864c7.476,19.172,15.825,42.095,35.751,47.227c34.633-11.953,45.681-58.92,31.769-92.813
		c-13.912-33.896-44.664-57.411-74.081-79.254c-14.346-10.652-30.72-21.868-48.43-19.469c-12.193,1.65-24.065,9.733-35.876,6.288
		c-7.714-2.251-13.41-9.048-21.045-11.554c-16.053-5.274-31.156,9.907-40.182,24.194c-14.863,23.536-26.24,49.271-33.638,76.104
		c-39.124,2.604-82.421-16.189-96.058-52.95c-1.803-4.862-2.793-9.94-3.098-15.074c-7.682,14.458-14.169,29.548-19.394,45.066
		c-9.401,27.917-14.73,57.209-15.66,86.648c-1.551,49.226,11.606,97.024,35.153,139.491
		C479.364,904.032,494.04,917.165,511.076,915.372z"/>
	<path style="fill:#5BBBA0;" d="M522.583,564.352c7.826,1.433,15.519,4.881,23.411,3.875c9.678-1.234,17.16-8.786,23.83-15.904
		c21.12-22.537,42.239-45.077,63.358-67.616c-46.799,15.799-89.81,42.68-124.483,79.468
		C513.176,563.469,517.827,563.481,522.583,564.352z"/>
	<path style="fill:#5BBBA0;" d="M666.34,521.885c0.095,27.613,35.592,43.557,61.85,35.018c24.92-8.104,65.136-44.439,70.63-71.387
		c0.796-3.901,1.236-7.314,1.396-10.355c-39.977-8.622-80.938-9.164-120.444-2.254C686.668,489.925,682.593,512.342,666.34,521.885z
		"/>
	<path style="fill:#07A66F;" d="M795.634,208.758c6.376-1.926,12.773-3.783,19.189-5.575
		C808.406,204.973,802.01,206.831,795.634,208.758z"/>
	<path style="fill:#07A66F;" d="M978.54,250.121c-11.668-4.659-24.58-6.667-36.798-10.092c-16.6-4.655-34.038-13.984-39.017-30.488
		c-2.093-6.94-1.702-14.297-1.848-21.584c-46.274,6.904-91.929,17.332-136.513,31.174c-11.379,23.937-36.138,44.039-31.54,69.476
		C811.718,262.672,894.855,249.536,978.54,250.121z"/>
	<path style="fill:#07A66F;" d="M774.372,215.446c-3.274,1.074-6.549,2.143-9.812,3.251c-0.015,0.033-0.029,0.066-0.045,0.099
		C767.802,217.68,771.075,216.527,774.372,215.446z"/>
	<path style="fill:#07A66F;" d="M775.219,215.172c6.386-2.087,12.795-4.105,19.225-6.056
		C788.014,211.066,781.605,213.085,775.219,215.172z"/>
	<path style="fill:#07A66F;" d="M900.669,183.408c-21.635,3.929-43.108,8.643-64.395,14.051c21.285-5.409,42.768-10.064,64.4-13.993
		C900.673,183.448,900.671,183.427,900.669,183.408z"/>
	<path style="fill:#07A66F;" d="M815.966,202.862c6.535-1.815,13.089-3.56,19.663-5.236
		C829.055,199.302,822.501,201.047,815.966,202.862z"/>
	<path style="fill:#009663;" d="M764.364,219.131c44.584-13.841,90.239-24.27,136.513-31.174c-0.029-1.503-0.1-3-0.204-4.491
		c-21.631,3.929-43.115,8.585-64.4,13.993c-0.216,0.055-0.43,0.111-0.645,0.166c-6.574,1.676-13.128,3.421-19.663,5.236
		c-0.382,0.107-0.762,0.214-1.143,0.321c-6.416,1.792-12.813,3.648-19.189,5.575c-0.397,0.118-0.793,0.238-1.19,0.358
		c-6.43,1.951-12.839,3.969-19.225,6.056c-0.282,0.092-0.564,0.183-0.846,0.274c-3.297,1.081-6.57,2.234-9.857,3.351
		C764.464,218.907,764.416,219.019,764.364,219.131z"/>
	<path style="fill:#44B388;" d="M868.205,447.241c-4.378,18.198-9.151,40.864,4.159,53.214c3.952,1.991,7.839,4.072,11.664,6.231
		c14.516,3.789,32.566-1.316,46.2,6.157c4.812,2.639,8.86,6.768,14.115,8.355c16.617,5.014,28.342-17.707,26.495-34.965
		c-1.85-17.259-9.318-35.803-0.994-51.033c8.78-16.062,29.914-19.157,46.513-26.87c10.437-4.849,19.367-11.941,26.933-20.442
		c-55.341-13.447-111.854-18.678-167.727-16.171C876.58,397.07,874.139,422.566,868.205,447.241z"/>
	<path style="fill:#5BBBA0;" d="M873.947,501.88c3.055,2.386,6.463,3.861,10.081,4.805c-3.826-2.159-7.712-4.24-11.664-6.231
		C872.882,500.936,873.373,501.431,873.947,501.88z"/>
	<path style="fill:#07A66F;" d="M1464.99,412.223c-6.859-12.577-22.654-12.382-37.428-7.936
		c13.368,10.597,26.32,21.629,38.806,33.107C1467.583,428.579,1469.125,419.806,1464.99,412.223z"/>
	<path style="fill:#07A66F;" d="M1498.34,271.3c-7.155,7.612-13.744,15.383-19.521,23.189c-26.62,35.969-36.058,72.65-4.529,97.585
		c17.681,13.982,44.08,16.493,57.125,34.873c13.071,18.421,3.318,48.317-18.103,55.484c-0.593,0.198-1.199,0.306-1.799,0.466
		c192.275,211.922,251.952,533.678,123.841,805.261c-50.558,107.179-127.744,195.302-220.697,261.678
		c3.904,27.73,18.186,53.4,28.742,79.652c11.846,29.46,18.62,64.807,1.601,91.614c14.863,7.159,31.596-5.21,42.225-17.828
		c45.259-53.721,64.942-128.295,120.111-171.777c44.248-34.876,108.76-47.603,135.657-97.108
		c31.83-58.576-7.268-137.953,26.749-195.287c13.097-22.073,35.283-37.225,50.559-57.85c15.276-20.623,21.588-52.903,2.462-70.018
		c-14.14-12.652-35.344-11.334-54.23-13.167c-18.882-1.832-41.132-12.155-41.511-31.125c-0.754-37.899,78.358-35.139,76.817-73.014
		c-0.321-7.919-4.708-15.016-8.961-21.701c-12.265-19.284-24.53-38.566-36.795-57.848c31.842,3.269,61.651,22.452,77.82,50.08
		c4.115,7.034,8.19,15.262,15.97,17.692c6.681,2.084,13.788-0.93,20.073-4.011c9.789-4.799,19.399-9.957,28.852-15.39
		c21.14-12.149,41.38-25.852,60.509-40.968C1915.851,651.124,1750.849,403.335,1498.34,271.3z"/>
	<path style="fill:#44B388;" d="M1347.503,948.569c-26.327,28.148-51.053,69.144-89.429,65.575
		c-14.247-1.327-27.093-9.141-41.124-11.947c-43.21-8.638-84.47,44.779-65.197,84.403c32.572,66.963,154.644,32.107,192.264,96.371
		c18.389,31.411,6.326,70.913-3.528,105.951c-2.073,7.369-3.924,15.1-5.316,22.943c34.29-37.605,63.431-80.386,85.873-127.961
		c43.495-92.209,59.31-191.805,51.043-288.579C1425.718,895.569,1379.265,914.612,1347.503,948.569z"/>
	<path style="fill:#44B388;" d="M1323.13,627.705c-25.738,8.843-45.02,36.798-39.462,63.437
		c5.557,26.642,39.372,44.614,62.772,30.717c-12.583,23.614-18.366,50.802-16.482,77.494c19.291-5.757,39.237-11.577,59.229-9.239
		c19.996,2.338,40.217,15.03,44.904,34.607c4.066-13.148,10.47-25.544,18.712-36.564c-15.064-54.285-37.856-106.303-67.693-154.052
		C1365.928,624.212,1343.378,620.751,1323.13,627.705z"/>
	<path style="fill:#009663;" d="M1900.8,962.751c21.14-12.149,41.38-25.852,60.509-40.968
		c-45.458-270.659-210.46-518.448-462.97-650.483c-7.155,7.612-13.744,15.383-19.521,23.189
		C1721.913,435.517,1873.855,691.044,1900.8,962.751z"/>
</g>
</svg>
